<svg id="Layer_1" data-name="Layer 1" xmlns="http://www.w3.org/2000/svg" xmlns:xlink="http://www.w3.org/1999/xlink" viewBox="0 0 2048 2048"><defs><style>.cls-1{fill:#090909;}.cls-2{fill:url(#linear-gradient);}.cls-3{fill:url(#linear-gradient-2);}.cls-4{fill:url(#linear-gradient-3);}</style><linearGradient id="linear-gradient" x1="940.55" y1="1273.88" x2="651.99" y2="774.07" gradientUnits="userSpaceOnUse"><stop offset="0" stop-color="#e5e5e5"/><stop offset="1" stop-color="#b0b0b0"/></linearGradient><linearGradient id="linear-gradient-2" x1="1473.4" y1="1530.44" x2="1324.29" y2="1272.18" xlink:href="#linear-gradient"/><linearGradient id="linear-gradient-3" x1="1305.86" y1="1188.99" x2="1132.86" y2="889.34" gradientUnits="userSpaceOnUse"><stop offset="0" stop-color="#e91e54"/><stop offset="1" stop-color="#ad0a36"/></linearGradient></defs><rect class="cls-1" y="-0.17" width="2048" height="2048" rx="450"/><path class="cls-2" d="M429.22,1440.15A25.44,25.44,0,0,1,432,1429c4.25-6.89,68.95-133.77,164.68-322.61,17.44-34.42,41.13-81.2,52.74-104s35.18-69.13,52.44-103.19,42.53-84,56.12-110.84,28.47-54.43,32.91-61.14c26.6-40.55,66.79-75.08,116.38-99.82a258.25,258.25,0,0,1,59.5-21.23l16.8-4,89.9-.58,89.78-.59v5.37c0,6.13-6.42,19.14-83.3,170.64-26.31,51.68-92.06,181-146,287.43-119.42,235-118.78,234.1-131,253.06-40.19,61.78-104.6,106.7-179,124.9-12.72,3.21-17.91,3.39-103.84,3.85l-90.66.59v-6.6Z"/><path class="cls-3" d="M1224.3,1440.91v-5.84l16.34-7.64c32.26-15,64.81-37,89.6-60.26,39.44-37.16,70-87.16,83.77-137.33,3.39-12.54,3.39-12.71,8.4-12.71s5,.17,8.87,12.83c17.91,58.4,55.07,112.36,105.65,152.73,19,15.28,46,33.19,66.39,43.75l15.46,8.28v11.79H1224.3v-5.6Z"/><path class="cls-4" d="M1201.37,1193.21c-21.58-72.17-25.84-82.72-38.5-96.2-12.83-13.59-34.07-21.88-106.87-41.77l-32.73-8.87-.47-6.88-.46-6.71,15-3.5c37.63-8.87,95.73-27.07,109.62-34.42a62.92,62.92,0,0,0,28.11-28.76c4.73-10.27,15.11-42.53,31-96.49l8.11-27.24,5.37.46,5.36.47,11.14,38.21c21.71,74.61,27.25,88.56,39.62,101,13.59,13.77,34.41,21.88,113,43.29l27.54,7.46v13l-26.78,7.18c-56.12,15.11-89.78,26.31-102.15,34.24-20.65,13-27.65,28-50,106.12l-11.9,41.59h-11.32l-12.72-42.35Z"/></svg>