<?xml version="1.0" encoding="UTF-8"?>
<svg id="Livello_1" data-name="Livello 1" xmlns="http://www.w3.org/2000/svg" viewBox="0 0 160 160">
  <defs>
    <style>
      .cls-1 {
        fill: #fff;
        stroke: #000;
        stroke-miterlimit: 10;
        stroke-width: 3px;
      }

      .cls-2 {
        fill: none;
      }
    </style>
  </defs>
  <g id="Oggetto_generativo" data-name="Oggetto generativo">
    <g>
      <path class="cls-2" d="M32.45,143.67c-.25-.18-.39-.19-.41-.2-.57-.51-3.33-2.75-3.47-3.06,7.59,3.88,16.66,3.34,24.8,1.63,30.27-6.37,62.87-36.95,78.27-62.96,8.48-14.32,15.91-32.69,9.9-49.29,30.25,36.85,20.9,92.39-19.39,117.55-28.57,17.84-62.55,15.45-89.69-3.67Z"/>
      <path class="cls-2" d="M144.18,34.29c2.84,10.33.14,22.19-3.78,31.94-13.33,33.16-56.45,76.32-93.57,79.08-2.39.18-4.87-.25-7.24.1,29.01,18.15,66.87,14.61,92.14-8.27,22.37-20.25,31.31-53.94,20.92-82.55-1.68-4.62-4.58-8.92-5.82-13.57,20.79,34.02,10.26,79.82-22.04,102.45-26.59,18.63-61.52,18.62-88.47.71.07-.23,3.17.49,3.57.51,32.94,2,69.08-30.09,86.84-55.41,11.09-15.82,20.71-35.06,17.45-55Z"/>
      <path class="cls-2" d="M104.08,119.18c-.47.94.3,1.69.61,2.65l-.61.2c-.55-1.02-.58-2.11-1.63-1.43l-.2-.61c.31-.27.64-.68,1.02-1.02l.82.2Z"/>
      <path class="cls-2" d="M104.69,121.84c-.31-.96-1.08-1.71-.61-2.65,1.61-3.22,4,4.91,4.29,6.02,1.5,5.84,1.72,13.92.41,19.8-.14.61-1.74,6.79-2.86,5.1-.21-.32,1.5-6.22,1.63-7.55.82-8.02-.44-13.29-2.86-20.71Z"/>
      <path class="cls-2" d="M104.08,122.04c3.3,6.11,3.73,15.6,2.65,22.35-.11.72-1.36,7.65-2.76,6.63,2.47-9.74,1.75-19.04-1.53-28.47-.22-.64-1.44-1.01,0-1.94,1.05-.68,1.08.41,1.63,1.43Z"/>
      <g>
        <path class="cls-2" d="M102.24,120l.2.61c-1.44.93-.22,1.3,0,1.94,3.28,9.43,4,18.73,1.53,28.47,1.39,1.02,2.64-5.92,2.76-6.63,1.07-6.75.65-16.24-2.65-22.35l.61-.2c2.42,7.42,3.67,12.69,2.86,20.71-.14,1.33-1.85,7.23-1.63,7.55,1.12,1.69,2.72-4.49,2.86-5.1,1.31-5.88,1.09-13.96-.41-19.8-.29-1.11-2.68-9.24-4.29-6.02l-.82-.2c20.86-18.52,40.75-45.37,43.57-73.88,13.81,25.81,10.72,58.87-7.45,81.73-22.31,28.08-63.24,37.84-94.8,19.49,21.27-.35,42.01-12.74,57.65-26.33Z"/>
        <g>
          <path class="cls-2" d="M125,96.73c6.36,9.1,7.27,23.93,5.2,34.59-.41,2.13-.98,5.55-2.96,6.63l1.53-8.27c.75-10.57-.33-21.16-5.31-30.61-.09-.92,1.04-1.55,1.53-2.35Z"/>
          <path class="cls-2" d="M146.22,54.9c.64-.06,3.57,11.08,3.78,12.14,1.98,10.42,1.67,24.15.41,34.69-.38,3.17-.71,6.49-2.35,9.29,1.16-8.99,2.05-18.15,1.73-27.24-.25-7.17-1.41-13.69-3.06-20.61-.74-3.1-2.53-4.93-.51-8.27Z"/>
          <path class="cls-2" d="M127.45,93.47c5.6,8.17,6.52,19.99,5.82,29.69-.12,1.63-1.13,10.02-1.63,11.02-.11.21-1.38,1.35-1.53,1.33-.46-.02-.14-1.29-.1-1.53,2.13-12.8,2.4-21.52-2.24-33.88-1.03-2.73-3.33-4.02-.31-6.63Z"/>
          <path class="cls-2" d="M132.35,86.33c4.83,11.45,6.64,24.22,5,36.63-.36,2.74-.92,5.76-2.55,8.06-.68-.02,1.05-6.69,1.12-7.45.63-6.4.03-16.39-1.43-22.65-.63-2.72-3.76-9.35-3.88-11.22-.08-1.27,1-2.43,1.73-3.37Z"/>
          <path class="cls-2" d="M146.33,114.49c-.5.11-.23-1.14-.2-1.33,2.5-16.82,2.17-30.58-1.63-47.04-.62-2.69-1.11-3.23.31-6.12,4.57,10.27,4.79,22.63,4.39,33.78-.17,4.53-.96,17.01-2.86,20.71Z"/>
          <path class="cls-2" d="M136.84,78.78c5.07,10.35,5.55,23.59,4.59,35-.22,2.57-.82,7.81-1.43,10.2-.17.66-.46,1.41-.92,1.94,1.12-10.26,2.03-20.91-.1-31.12-.48-2.31-4.02-11.92-3.88-13.06.07-.58,1.48-2.26,1.73-2.96Z"/>
          <path class="cls-2" d="M134.39,83.06c5.34,11.1,6.26,24.06,5,36.22-.3,2.94-.67,6.91-2.35,9.29l1.12-9.69c.85-11.68-1.37-22.39-5.31-33.27l1.53-2.55Z"/>
          <path class="cls-2" d="M129.9,90c.43.04,3.11,7.18,3.37,8.06,2.46,8.31,3.47,24.91.61,33.06-.25.7-.49,1.46-1.12,1.94-.23-3.75.95-7.42,1.12-11.12.38-7.91-.54-16.01-3.06-23.47-.99-2.94-4.1-5.91-.92-8.47Z"/>
          <path class="cls-2" d="M141.33,69.8c5.59,12.55,4.59,27.69,3.16,41.12-.35,3.3-.53,7.73-2.14,10.51,1.3-12.05,2.89-24.98.71-37.04-.5-2.76-3.55-10.37-3.06-12.24.04-.17,1.19-2.36,1.33-2.35Z"/>
          <path class="cls-2" d="M122.76,99.59c5.59,8.88,6.71,21.64,5.2,31.94-.16,1.08-1.81,8.29-2.96,8.06-.33-.23-.29-.36-.31-.71-.07-1.5,1.63-7.26,1.84-9.59.73-8.34-.61-15.05-3.27-22.86-.85-2.49-3.5-4.91-.51-6.84Z"/>
          <path class="cls-2" d="M120.31,102.45c.9-.09,3.66,7.39,3.98,8.47,2.24,7.62,2.46,15.66,1.02,23.47-.09.49-2.04,9.5-3.27,7.14,3.75-10.88,2.42-23-1.43-33.67-.76-2.12-2.88-3.3-.31-5.41Z"/>
          <path class="cls-2" d="M118.06,105.31c1.08-.11,3.88,7.88,4.18,9.08,1.81,7.07,2.1,15.33.61,22.45-.25,1.18-1.42,6.46-2.76,6.43-.99-.39.5-2.81.71-3.78,2.01-9.19,1.06-19.59-2.24-28.37-.95-2.53-3.58-3.82-.51-5.82Z"/>
          <path class="cls-2" d="M139.08,74.49c4.38,7.65,4.6,17.72,4.39,26.43-.1,3.97-.42,8.9-.82,12.86-.33,3.26-.72,7.11-1.94,10.1-.31-.36-.15-1.28-.1-1.73.35-3.55,1.41-7.38,1.63-11.02.67-10.95-.5-23.18-4.9-33.27l1.73-3.37Z"/>
          <path class="cls-2" d="M147.04,50.2c7.06,16.28,8,35.86,3.88,53.06l.92-12.55c.16-8.63,0-17.27-1.84-25.71-.7-3.25-3.08-8.37-3.47-11.02-.06-.43.04-3.76.51-3.78Z"/>
          <path class="cls-2" d="M143.88,66.33c4.6,10.01,3.71,36.76,1.63,47.76-.06.31-1.06,5.06-1.43,4.39,1.48-13,3.3-27.05.61-40-.67-3.24-4.12-10.47-1.84-13.06.14-.16.28-.36.51-.31.33.08.38.95.51,1.22Z"/>
          <path class="cls-2" d="M115.41,107.96c1.41-.26,4.05,7.41,4.39,8.67,1.81,6.72,2.16,15.25.61,22.04-.1.46-2.29,7.67-3.27,5.92,3.11-8.17,2.86-17.29.82-25.71-.39-1.62-3.6-9.48-3.47-10,.02-.06.85-.91.92-.92Z"/>
          <path class="cls-2" d="M109.08,114.49c1.72-.29,4.72,9.72,5,11.33.93,5.23.73,10.94-.41,16.12-.25,1.13-1.6,6.41-2.76,6.43-.95.02.56-3.23.71-3.98,1.33-6.45,1.37-12.97-.2-19.39-.38-1.55-3.42-8.99-3.27-9.59.02-.06.85-.91.92-.92Z"/>
          <path class="cls-2" d="M111.53,112.24c5.52,7.13,6.2,17.52,4.8,26.22-.21,1.28-1.84,8.86-3.16,8.67-.41-.25-.18-.94-.1-1.33,1.75-8.95,3.07-14.16.61-23.47-.42-1.6-3.45-7.91-3.47-8.37-.03-.74.95-1.21,1.33-1.73Z"/>
          <path class="cls-2" d="M107.45,116.12c3.81,6.95,5.18,15.7,4.39,23.57-.13,1.27-1.7,10.22-3.37,9.69-.87-.27.6-3.01.71-3.57,1.75-8.33.96-16.85-1.63-24.9-.63-1.96-2.58-3.2-.1-4.8Z"/>
          <path class="cls-2" d="M113.57,110c4.91,7.55,6.55,18.81,5,27.65-.2,1.15-1.97,8.28-2.96,8.27-.3,0-.53-.2-.51-.51,3.15-9.58,3.34-19.78-.41-29.18-.88-2.21-3.8-4.68-1.12-6.22Z"/>
          <path class="cls-2" d="M101.12,121.84c3.61,6.95,4.56,16.05,3.37,23.78-.19,1.26-1.15,7.27-3.06,5.71,2.72-9.08,2.09-19.53-1.84-28.16l1.53-1.33Z"/>
          <path class="cls-2" d="M97.04,125.1c3.71,5.98,4.07,14.91,2.76,21.73-.19.98-1.74,7.41-3.37,6.43,2.14-6.81,2.63-13.04,1.53-20.1-.18-1.19-1.87-6.58-1.84-6.94.05-.46.65-.77.92-1.12Z"/>
          <path class="cls-2" d="M93.78,127.35c.74-.09,1.6,4.06,1.73,4.8,1.05,5.57.43,15.39-1.84,20.61-.25.58-.5,1.33-1.33,1.33-.33-.07-.13-1.07-.1-1.33.7-5.95,2.42-9.61,1.84-16.33-.12-1.34-1.74-7.27-1.63-7.76.02-.09,1.23-1.32,1.33-1.33Z"/>
          <path class="cls-2" d="M99.08,123.47c3.46,7.35,4.44,16.42,2.76,24.39-.35,1.64-.83,4.65-2.76,4.8-.57-.09,1.22-5.05,1.33-5.61,1.1-6.11.71-11.98-.82-17.96-.47-1.84-2.72-4.7-.51-5.61Z"/>
          <path class="cls-2" d="M147.24,47.35c7.47,14.75,9.42,32.2,5.92,48.37,1.85-13.75.55-29.21-3.98-42.35-.68-1.97-2.41-3.87-1.94-6.02Z"/>
          <path class="cls-2" d="M91.53,129.18c1.52.28,2.23,11.34,2.14,12.96-.08,1.43-1.69,10.88-2.24,11.63-.39.52-.7.58-1.33.51,1.27-5.5,2.21-11.16,1.73-16.84-.12-1.46-1.52-6.39-1.43-7.14.05-.39.96-1.15,1.12-1.12Z"/>
          <path class="cls-2" d="M95.41,126.33c.6-.02,2,6.16,2.14,7.04.85,5.34.97,11.79-.82,16.94-.26.74-1.28,3.78-2.35,3.37-.66-.25,1.55-6.6,1.73-7.65.65-3.79.67-8.43.2-12.24-.13-1.06-2.09-7.4-.92-7.45Z"/>
          <path class="cls-2" d="M89.69,130.41c2.19,6.32,2.39,15.14.31,21.53-.27.84-.81,2.93-1.94,2.76-.57-.09,1.23-5.45,1.33-6.02.57-3.36.82-6.81.41-10.2-.14-1.13-1.73-6.35-1.63-6.73.08-.34,1.26-1.01,1.53-1.33Z"/>
          <path class="cls-2" d="M85.61,133.06c.7-.08,1.2,2.91,1.33,3.57.9,4.76.64,11.75-1.02,16.33-.56,1.55-1.95,3.43-1.63.41.53-4.99,1.72-7.89,1.43-13.47-.07-1.29-1.73-6.64-.1-6.84Z"/>
          <path class="cls-2" d="M87.24,132.04c.62-.04,1.84,5.25,1.94,6.02.49,3.73,0,12.64-1.84,15.92-.18.32-.65,1.07-1.12.71-.34-.26,1.64-7.25,1.73-8.47.14-1.72.14-4.6,0-6.33-.12-1.42-1.53-6.09-1.43-6.94.03-.27.61-.91.71-.92Z"/>
          <path class="cls-2" d="M83.37,134.49c1.06-.23,1.38,2.41,1.53,3.16.44,2.24.58,5.69.41,7.96-.07.91-1.56,8.8-1.84,9.18-.25.35-1.05.43-1.33.31-.39-.17,1.66-7.55,1.53-8.47-.18-1.84.26-3.69.2-5.51-.03-1.1-1.09-5.82-1.02-6.12,0-.04.47-.5.51-.51Z"/>
          <path class="cls-2" d="M81.94,135.31c1.34.16,1.41,8.84,1.33,10.1s-1.45,8.8-2.04,9.39c-.4.4-.59.33-1.12.31-.7-.31.97-4.53,1.12-5.41.53-3.01.77-6.12.61-9.18-.04-.82-1.58-5.41.1-5.2Z"/>
          <path class="cls-2" d="M146.33,114.49c-.58,1.14-.36.32-.82-.41,2.08-10.99,2.97-37.74-1.63-47.76l.61-.2c3.8,16.46,4.13,30.22,1.63,47.04-.03.19-.29,1.43.2,1.33Z"/>
          <path class="cls-2" d="M80.1,136.33c1.21.11,1.24,8.61,1.12,9.9-.1,1.12-1.84,8.62-2.55,8.88-2.16.78-.09-2.96.1-3.78.82-3.4,1.11-6.49,1.02-10-.02-.86-1.31-5.14.31-5Z"/>
          <path class="cls-2" d="M73.98,139.59c.63-.01,1.02,1.84,1.12,2.35.83,4.22-.62,8.52-1.22,12.65-.28.54-1.52.22-1.63-.41-.06-.32,1.34-5.11,1.43-6.33.1-1.37-.55-7.39-.41-7.76.04-.11.67-.51.71-.51Z"/>
          <path class="cls-2" d="M76.43,138.37c1.94,5.52.31,10.75-.71,16.22l-.92.31c-.54-.25,1.08-7.42,1.12-8.67.04-1.35-.06-2.94-.2-4.29-.19-1.82-1.83-2.67.71-3.57Z"/>
          <path class="cls-2" d="M78.27,137.35c.98.19,1.02,7.99.92,9.08-.07.75-2.01,8.67-2.76,8.47-.62-1.23.5-2.95.71-4.18.28-1.6.75-3.96.82-5.51.06-1.45-.93-6.8-.82-7.14.1-.31.91-.43,1.12-.71Z"/>
          <path class="cls-2" d="M71.94,140.41c.95-.05,1.01,1.45,1.12,2.35.26,2.18-.16,9.15-1.22,11.02-.38.67-.47.82-1.33.71-.63-.29,1.04-6.51,1.12-7.65.09-1.23-.49-5.63-.41-5.92.03-.1.67-.51.71-.51Z"/>
          <path class="cls-2" d="M68.67,141.84c1.1,1.25-.64,11.52-1.12,11.94-.15.13-.98.17-1.12.1-.76-.35,1.89-9.68.71-11.12l1.53-.92Z"/>
          <path class="cls-2" d="M70.1,141.22c.35-.06.5.04.71.31.27,2.22.27,4.51,0,6.73-.13,1.05-1.09,6.14-2.14,6.02l1.43-13.06Z"/>
          <path class="cls-2" d="M66.02,142.86c.36-.01.49,0,.71.31.34.78-.84,9.86-1.22,10.2-.15.13-.97.16-1.12.1-.65-.26,1.9-8.65.71-9.9.04-.14.84-.71.92-.71Z"/>
          <path class="cls-2" d="M64.18,143.47c.26.05.35.08.51.31.32.79-.58,7.92-1.02,8.78-.46.9-1.54.45-1.63-.2-.05-.34,1.11-3.36,1.22-4.08.14-.89-.57-5.09.92-4.8Z"/>
          <path class="cls-2" d="M62.14,144.08c.26.05.35.08.51.31.42,1.04-.41,6.45-1.02,7.55-1.67,2.99-.43-2.83-.41-3.06.07-.91-.51-5.08.92-4.8Z"/>
          <path class="cls-2" d="M60.31,144.69c1.08.35-.09,6.85-.51,7.24-1.83,1.7-.26-3.75-.2-4.08.1-.67-.5-3.55.71-3.16Z"/>
          <path class="cls-2" d="M57.86,145.31c2.36-.93.38,6.21,0,6.33-.04.01-.69-.42-.71-.51.5-.77.44-5.71.71-5.82Z"/>
          <path class="cls-2" d="M56.02,145.71c.2-.06.57.04.82,0,.59.35.23,7.01-1.53,5,.32-.64.47-4.92.71-5Z"/>
          <path class="cls-2" d="M54.39,146.12c1.32-.5.78,4.24-.2,4.29-1.2.05-.02-4.2.2-4.29Z"/>
          <path class="cls-2" d="M52.35,146.33c1.84-.89.78,3.32.41,3.47-1.43.27-.74-3.31-.41-3.47Z"/>
          <path class="cls-2" d="M50.71,146.53c1.29-.11.57,2.37.41,2.45-1.28.63-1.65-2.34-.41-2.45Z"/>
          <path class="cls-2" d="M47.86,146.73c2.89-.41,1.58,2.8-.92.31.28,0,.84-.29.92-.31Z"/>
        </g>
      </g>
    </g>
    <g>
      <path class="cls-2" d="M100.82,3.27c11.1,2.95,21.88,8.83,30.61,16.22-2.48-.95-4.92-1.88-7.55-2.35-36.48-6.52-76.03,29.73-94.29,58.06-6.36,9.87-13.6,24.31-14.49,36.12-.27,3.59.29,7.33-.1,10.92C-6.83,86.1,2.01,39.13,37.65,15.71,61.79-.14,90.62-.85,116.22,12.04c.54.27,7.45,4.58,7.65,3.98C94.12-4.15,54.61-1.6,27.86,22.45-1.62,48.94-5.11,92.8,16.22,125.51c-4.23-25.93,13.02-52.04,29.69-70.31,17.12-18.76,42.23-37.58,68.57-38.37-11.22.97-21.97,5.29-31.73,10.71-19.37,10.77-37.1,28.06-49.49,46.33-10.91,16.08-21.49,37.42-14.08,57.04C-3.99,103.45-5.42,64.04,14.9,34.49c.16-.23.3-.47.41-.61.93-1.32,2.43-3.22,3.47-4.49,0-.01.1-.08.2-.2.32-.39.7-.85,1.02-1.22.56-.66,1.25-1.39,1.84-2.04.12-.13.27-.27.41-.41.13-.13.27-.27.41-.41.95-1.01,2.25-2.31,3.27-3.27.08-.07.14-.15.2-.2.57-.53,1.25-1.12,1.84-1.63.11-.09.17-.18.2-.2.29-.25.7-.54,1.02-.82.12-.1.19-.19.2-.2.18-.15.53-.39.82-.61.13-.11.19-.19.2-.2.32-.26.69-.56,1.02-.82.09-.07.36-.21.61-.41.17-.13.19-.2.2-.2.26-.2.55-.42.82-.61.27-.2.56-.43.82-.61.18-.13.41-.27.61-.41.47-.33.98-.72,1.43-1.02.2-.13.42-.28.61-.41s.42-.29.61-.41c.05-.03.19-.06.41-.2.21-.13.43-.29.61-.41.23-.14.45-.31.61-.41.07-.04.2-.08.41-.2.07-.04.2-.08.41-.2.29-.17.5-.35.61-.41.1-.05.23-.1.41-.2.47-.27.97-.56,1.43-.82,1.71-.9,3.98-2.07,5.71-2.86.29-.13.69-.27,1.02-.41.78-.35,1.65-.7,2.45-1.02.33-.13.69-.29,1.02-.41.24-.09.39-.2.41-.2.19-.07.4-.13.61-.2,1.29-.46,2.99-1.04,4.29-1.43,14.18-3.98,28.99-4.21,43.27-.41Z"/>
      <g>
        <path class="cls-2" d="M33.27,73.88l.61.2c-10.7,15.67-28.97,53.76-4.9,65.92-.3,0-.6-.02-.41.41.14.31,2.9,2.55,3.47,3.06C-2.64,118.69-9.57,68.95,14.9,34.49c-20.32,29.55-18.89,68.96,4.29,96.43-7.41-19.62,3.18-40.96,14.08-57.04Z"/>
        <path class="cls-2" d="M100.82,2.86v.41c-14.28-3.8-29.08-3.57-43.27.41,14.85-4.48,28.21-4.42,43.27-.82Z"/>
        <path class="cls-2" d="M47.76,7.35c-1.74.78-4.01,1.95-5.71,2.86,1.95-1.07,3.67-1.95,5.71-2.86Z"/>
        <path class="cls-2" d="M15.31,33.88c1.24-1.72,2.12-2.85,3.47-4.49-1.04,1.27-2.54,3.17-3.47,4.49Z"/>
        <path class="cls-2" d="M25.92,21.84c-1.01.96-2.31,2.25-3.27,3.27,1.13-1.16,2.07-2.15,3.27-3.27Z"/>
        <path class="cls-2" d="M57.55,3.67c-1.3.39-3,.97-4.29,1.43,1.49-.53,2.75-1,4.29-1.43Z"/>
        <path class="cls-2" d="M20,27.96c.63-.72,1.18-1.34,1.84-2.04-.59.65-1.27,1.38-1.84,2.04Z"/>
        <path class="cls-2" d="M51.22,5.92c-.79.33-1.67.68-2.45,1.02.84-.35,1.59-.68,2.45-1.02Z"/>
        <path class="cls-2" d="M27.96,20c-.59.51-1.27,1.11-1.84,1.63.62-.58,1.21-1.07,1.84-1.63Z"/>
        <path class="cls-2" d="M35.92,13.88c-.45.3-.96.7-1.43,1.02.49-.34.92-.68,1.43-1.02Z"/>
        <path class="cls-2" d="M42.04,10.2c-.46.25-.96.55-1.43.82.49-.27.91-.54,1.43-.82Z"/>
        <path class="cls-2" d="M18.98,29.18c.35-.42.66-.81,1.02-1.22-.32.37-.7.84-1.02,1.22Z"/>
        <path class="cls-2" d="M29.18,18.98c-.32.27-.73.56-1.02.82.35-.3.69-.54,1.02-.82Z"/>
        <path class="cls-2" d="M31.43,17.14c-.33.26-.7.55-1.02.82.35-.28.66-.54,1.02-.82Z"/>
        <path class="cls-2" d="M48.78,6.94c-.33.14-.73.28-1.02.41.44-.2.72-.28,1.02-.41Z"/>
        <path class="cls-2" d="M30.2,18.16c-.28.23-.64.47-.82.61.32-.27.61-.44.82-.61Z"/>
        <path class="cls-2" d="M33.06,15.92c-.26.2-.55.41-.82.61.28-.21.53-.4.82-.61Z"/>
        <path class="cls-2" d="M33.88,15.31c-.26.18-.55.42-.82.61.28-.21.52-.4.82-.61Z"/>
        <path class="cls-2" d="M52.24,5.51c-.33.12-.69.28-1.02.41.35-.15.65-.27,1.02-.41Z"/>
        <path class="cls-2" d="M40.2,11.22c-.11.06-.32.24-.61.41.15-.09.31-.23.61-.41Z"/>
        <path class="cls-2" d="M32.04,16.73c-.26.2-.52.34-.61.41.27-.21.49-.32.61-.41Z"/>
        <path class="cls-2" d="M34.49,14.9c-.2.14-.43.28-.61.41.21-.15.42-.27.61-.41Z"/>
        <path class="cls-2" d="M37.14,13.06c-.19.12-.41.28-.61.41.2-.13.4-.27.61-.41Z"/>
        <path class="cls-2" d="M38.16,12.45c-.19.12-.4.28-.61.41.18-.11.34-.24.61-.41Z"/>
        <path class="cls-2" d="M38.78,12.04c-.17.1-.38.27-.61.41.16-.1.32-.23.61-.41Z"/>
        <path class="cls-2" d="M14.9,34.49c.14-.2.26-.4.41-.61-.1.14-.25.39-.41.61Z"/>
        <path class="cls-2" d="M36.53,13.47c-.19.13-.41.28-.61.41.21-.14.4-.27.61-.41Z"/>
        <path class="cls-2" d="M22.65,25.1c-.13.14-.28.28-.41.41.19-.2.32-.31.41-.41Z"/>
        <path class="cls-2" d="M25.92,21.84c.06-.06.13-.13.2-.2-.06.06-.13.13-.2.2Z"/>
        <path class="cls-2" d="M29.18,18.98s.08-.1.2-.2c-.01,0-.08.1-.2.2Z"/>
        <path class="cls-2" d="M30.2,18.16s.06-.09.2-.2c-.01,0-.07.1-.2.2Z"/>
        <path class="cls-2" d="M32.45,143.67h-.2c-.11-.09-.17-.17-.2-.2.02.02.16.03.41.2Z"/>
        <path class="cls-2" d="M40.61,11.02c-.18.1-.31.15-.41.2.2-.11.31-.15.41-.2Z"/>
        <path class="cls-2" d="M39.59,11.63c-.21.12-.33.16-.41.2.2-.12.32-.15.41-.2Z"/>
        <path class="cls-2" d="M39.18,11.84c-.21.13-.34.16-.41.2.2-.12.32-.15.41-.2Z"/>
        <path class="cls-2" d="M37.55,12.86c-.22.14-.36.17-.41.2.23-.15.35-.17.41-.2Z"/>
        <path class="cls-2" d="M32.04,16.73s.04-.08.2-.2c-.01,0-.04.08-.2.2Z"/>
        <path class="cls-2" d="M53.27,5.1c-.21.07-.42.13-.61.2.22-.08.41-.13.61-.2Z"/>
        <path class="cls-2" d="M18.78,29.39c.1-.13.19-.19.2-.2-.11.13-.19.19-.2.2Z"/>
        <path class="cls-2" d="M52.65,5.31s-.17.11-.41.2c.02,0,.15-.11.41-.2Z"/>
        <path class="cls-2" d="M22.24,25.51c-.13.14-.28.28-.41.41.2-.22.33-.32.41-.41Z"/>
        <path class="cls-2" d="M27.96,20s.09-.11.2-.2c-.03.03-.1.11-.2.2Z"/>
        <path class="cls-2" d="M123.88,17.14l-.2.61c-32.13-5.68-73.06,31.82-89.8,56.33l-.61-.2c12.39-18.27,30.12-35.56,49.49-46.33,9.76-5.43,20.52-9.74,31.73-10.71-26.34.79-51.45,19.61-68.57,38.37-16.68,18.27-33.93,44.38-29.69,70.31C-5.11,92.8-1.62,48.94,27.86,22.45,54.61-1.6,94.12-4.15,123.88,16.02c-.2.6-7.11-3.71-7.65-3.98C90.62-.85,61.79-.14,37.65,15.71,2.01,39.13-6.83,86.1,15,122.24c.4-3.59-.17-7.33.1-10.92.89-11.81,8.13-26.25,14.49-36.12C47.85,46.87,87.4,10.62,123.88,17.14Z"/>
        <path class="cls-2" d="M34.49,62.65c.61.97.58,1.06-.31,1.84-4.04-3.49-10.28-7.38-15.61-8.16-2.93-.43-6.23-.35-9.08.41-.92-3.95,7.1-3.33,9.59-2.86,3.24.62,13.7,6.05,15.41,8.78Z"/>
        <path class="cls-2" d="M35.71,55.92c.71.89,3.24,3.41,1.63,4.08-5.83-7.08-14.6-13.74-24.29-12.35.34-3.3,3.08-2.92,5.61-2.55,5.95.87,13.32,6.19,17.04,10.82Z"/>
        <path class="cls-2" d="M33.88,49.59c-4.39-3.81-9.17-5.93-14.8-7.35-.62-.16-2.21-.06-2.65-.2-.58-.2-.09-.77-.1-.82.89-1.77,3.55-.78,5.2-.41,3.19.73,7.7,2.83,10.41,4.69,1.83,1.26,9.15,7.95,9.29,9.9.26,3.81-3.52-2.06-3.88-2.45-1.08-1.17-2.27-2.33-3.47-3.37Z"/>
        <path class="cls-2" d="M30.41,64.9c.26.23,1.82,1.96,1.84,2.14.02.31-.74,1.32-.92,1.33-.25.02-3.35-2.65-4.08-3.06-1.51-.86-3.76-1.98-5.41-2.45-4.77-1.37-9.73-1.1-14.39.61-.75-4,7.9-3.89,10.41-3.67,3.46.29,9.96,2.77,12.55,5.1Z"/>
        <path class="cls-2" d="M17.14,56.73c3.4.27,8.17,2.36,11.12,4.08,1.07.62,5.93,3.55,5.2,4.8-.75,1.22-2.02-.54-2.86-1.12-6.73-4.65-14.01-6.89-22.14-4.29-.97-3.85,6.31-3.66,8.67-3.47Z"/>
        <path class="cls-2" d="M21.02,63.27c2.26.55,7.28,3.05,8.88,4.69,1.07,1.1,1.18,1.13,0,2.45-3.94-2.45-8.01-4.94-12.76-5.51-1.99-.24-4.24-.28-6.22,0-1.11.16-5.3,2.38-3.98-.1.5-.94,5.29-2.04,6.43-2.14,2.47-.22,5.26.03,7.65.61Z"/>
        <path class="cls-2" d="M25.71,71.63c1.4.94,3.14,1.48,1.12,3.27-3.82-2.66-8.94-4.21-13.57-4.08-2.58.07-4.86.71-7.24,1.63-1.09-2.31,3.08-3.59,4.69-3.88,4.81-.85,10.95.33,15,3.06Z"/>
        <path class="cls-2" d="M33.88,50.2c.86.78,5.62,6.3,5.71,7.04.06.47-.73,1.56-.92,1.53-.18-.03-1.71-2.37-2.14-2.86-5.86-6.63-12.69-11.37-21.84-11.94.91-2.26,5.07-1.03,7.04-.51,3.88,1.01,9.17,4.05,12.14,6.73Z"/>
        <path class="cls-2" d="M36.73,60.2c.15.42.27.78-.31.82-.48-.69-1.29-1.3-1.94-1.84-6.33-5.23-14.32-10.28-22.96-8.57,1.1-4.55,9.17-2.1,12.24-.82,2.88,1.21,11.94,7.64,12.96,10.41Z"/>
        <path class="cls-2" d="M16.94,65.51c2.76.33,6.5,1.64,8.88,3.06,1.06.63,4,2.27,3.16,3.57-.57,1.04-2.14-.64-3.06-1.12-6.35-3.32-12.57-4.57-19.49-1.84-.42-4.15,7.75-4,10.51-3.67Z"/>
        <path class="cls-2" d="M34.49,60c1.12,1.17,3.02,3.8,0,1.84-2.33-1.52-4.49-3.68-7.04-5.1-5.47-3.06-10.96-4.57-17.24-3.37.21-2.5,4.5-2.66,6.43-2.55,5.21.3,14.23,5.4,17.86,9.18Z"/>
        <path class="cls-2" d="M18.16,77.14c1.51.27,6.05,1.37,5.71,3.37-.3,1.74-3.46-.61-4.8-.92-1.52-.35-3.64-.5-5.2-.41-1.39.08-3.27.55-4.59,1.02-1.11.4-5.64,3.87-3.78-.1.25-.53,2.74-1.89,3.37-2.14,3.11-1.24,6.04-1.4,9.29-.82Z"/>
        <path class="cls-2" d="M13.27,71.43c4.65-.14,9.62,1.33,13.27,4.18l-.92,1.12c-2.28-1.54-5.93-2.79-8.67-3.06-3.8-.38-7.68.16-11.12,1.84-1.34-3.19,5.32-4.02,7.45-4.08Z"/>
        <path class="cls-2" d="M16.94,74.29c1.36.16,8.03,1.87,8.37,3.16.09.36-.57,1.5-.92,1.53-.32.02-4.15-2.13-5.82-2.45-3.71-.7-7-.3-10.51,1.02-.46.17-2.51,1.79-2.76,1.12-.48-1.84,1.07-2.73,2.55-3.37,2.74-1.17,6.17-1.35,9.08-1.02Z"/>
        <path class="cls-2" d="M13.88,79.8c1.56-.12,8.61.45,8.78,2.55.2,2.53-3.63-.1-4.8-.31-1.28-.23-2.89-.16-4.18,0-2.87.36-5.59,1.9-7.86,3.67-2.05-3.7,5.52-5.73,8.06-5.92Z"/>
        <path class="cls-2" d="M21.02,85.92c-3.89-.02-5.13-2.34-10.51-.41-1.13.4-4.23,2.93-4.49,2.86-1.38-.37,1.01-2.7,1.43-3.06,1.51-1.29,4.45-2.4,6.43-2.65,2.08-.27,8.58.09,7.14,3.27Z"/>
        <g>
          <path class="cls-2" d="M21.63,85.92c-.4.33-.38,0-.61,0,1.44-3.17-5.06-3.54-7.14-3.27l-.2-.61c1.29-.16,2.91-.23,4.18,0,1.16.21,5,2.83,4.8.31-.17-2.1-7.21-2.67-8.78-2.55v-.61c1.56-.09,3.68.05,5.2.41,1.34.31,4.5,2.66,4.8.92.34-2-4.21-3.1-5.71-3.37l.41-.61c1.67.31,5.5,2.47,5.82,2.45.35-.03,1.01-1.17.92-1.53-.33-1.3-7.01-3.01-8.37-3.16v-.61c2.74.27,6.39,1.52,8.67,3.06l.92-1.12c-3.65-2.85-8.62-4.33-13.27-4.18v-.61c4.63-.13,9.75,1.42,13.57,4.08,2.01-1.78.28-2.32-1.12-3.27l.2-.61c.92.48,2.49,2.17,3.06,1.12.83-1.3-2.11-2.94-3.16-3.57-2.37-1.42-6.11-2.73-8.88-3.06l.2-.61c4.74.57,8.81,3.06,12.76,5.51,1.18-1.32,1.07-1.35,0-2.45-1.6-1.65-6.62-4.14-8.88-4.69l.82-.41c1.65.47,3.9,1.59,5.41,2.45.73.41,3.83,3.08,4.08,3.06.18-.01.94-1.02.92-1.33-.01-.19-1.58-1.91-1.84-2.14l.2-.41c.84.58,2.11,2.34,2.86,1.12.73-1.25-4.14-4.17-5.2-4.8-2.95-1.73-7.72-3.81-11.12-4.08l1.43-.41c5.33.79,11.57,4.68,15.61,8.16.88-.78.91-.87.31-1.84v-.82c3.02,1.97,1.12-.67,0-1.84v-.82c.65.54,1.46,1.15,1.94,1.84.58-.03.46-.4.31-.82.03-.8.14,0,.61-.2,1.61-.68-.92-3.19-1.63-4.08h.82c.43.48,1.97,2.83,2.14,2.86.19.03.98-1.06.92-1.53-.09-.74-4.85-6.26-5.71-7.04v-.61c1.2,1.04,2.39,2.2,3.47,3.37.35.39,4.14,6.26,3.88,2.45-.13-1.95-7.46-8.64-9.29-9.9-2.71-1.87-7.22-3.97-10.41-4.69-1.65-.38-4.31-1.36-5.2.41-.03-.1-.55-.5-.41-.82C37.59,5.65,83.22-5.98,118.78,15c-18.54-.8-35.48,6.66-50.31,17.04-18.05,12.63-37.26,34-46.84,53.88Z"/>
          <g>
            <path class="cls-2" d="M22.96,32.45c.77-.14,5.16,1.25,6.12,1.63,5.6,2.23,13.62,8.75,16.63,13.98.82,1.42,1.53,1.98-.31,2.96-5.6-8.12-14.1-14.5-23.88-16.53l-.2-.41c.47-.4.97-1.51,1.63-1.63Z"/>
            <path class="cls-2" d="M33.98,21.63c2.21-.19,9.95,4.93,11.84,6.53s10.52,11.04,9.9,13.16c-.06.21-.91.77-1.12.71-5.18-8.37-12.88-15.44-22.24-18.78-.4-.44,1.38-1.61,1.63-1.63Z"/>
            <path class="cls-2" d="M40.92,16.53c4.41-.82,14.07,8.1,16.63,11.53.65.87,4.6,7.17,4.49,7.76-.04.19-1.16,1.15-1.53,1.12-4.46-8.58-11.6-15.84-20.82-19.18-.35-.5,1.09-1.2,1.22-1.22Z"/>
            <path class="cls-2" d="M24.8,30.2c2.68-.71,11.33,4.36,13.67,6.12,1.82,1.37,10.43,9.8,10.1,11.73-.02.09-1.09,1.16-1.33,1.12-.36-.05-3.6-4.95-4.39-5.82-3.84-4.24-8.87-7.94-14.18-10.1-.73-.3-4.73-1.24-4.9-1.43-.4-.43.63-1.53,1.02-1.63Z"/>
            <path class="cls-2" d="M18.88,37.55c2.5-.64,11.73,3.75,14.08,5.31,1.89,1.25,10.5,8.89,10.1,10.92-.02.08-1.04,1.12-1.12,1.12-.24,0-1.63-2.4-1.94-2.76-3.92-4.46-8.98-8.61-14.59-10.71-1.12-.42-7.59-1.88-7.65-2.35.43-.25.7-1.42,1.12-1.53Z"/>
            <path class="cls-2" d="M38.27,18.16c2.3-.4,10.11,4.86,12.04,6.53,2.04,1.76,9.37,10.2,9.49,12.55.04.8-1.02,1.7-1.63,1.22-.32-.25-3.4-5.63-4.29-6.73-4.35-5.47-10.3-9.9-16.84-12.35-.21-.32,1.14-1.21,1.22-1.22Z"/>
            <path class="cls-2" d="M29.08,25.71c.94-.2,4.87,1.52,5.92,2.04,5.26,2.6,12.6,9.08,15.82,13.98.82,1.26,2.46,2.98.1,3.57-4.66-6.84-10.89-12.69-18.37-16.33-.88-.43-4.83-1.29-4.59-2.35.02-.07,1.05-.9,1.12-.92Z"/>
            <path class="cls-2" d="M20.71,35.1c2.51-.6,11.55,4.11,13.88,5.71,1.97,1.35,10.6,8.92,10.1,11.12-.59,2.62-3.26-2.17-3.88-2.86-5.57-6.18-13.02-10.82-21.33-12.14-.29-.3,1.02-1.79,1.22-1.84Z"/>
            <path class="cls-2" d="M27.24,27.76c.89-.09,7.23,2.82,8.37,3.47,3.39,1.93,13.58,10.63,14.59,14.18.24.85-.44,1.91-1.12,1.73-.31-.08-3.14-4.48-3.78-5.2-5.03-5.69-11.98-10.65-19.49-12.35l-.2-.41c.02-.14,1.43-1.41,1.63-1.43Z"/>
            <path class="cls-2" d="M43.98,14.69c1.35-.15,6.26,2.77,7.55,3.67,3.57,2.49,7.82,7.01,10.1,10.71.91,1.47,3.73,5.47,1.33,6.22-4.87-8.5-11.17-16.1-20.71-19.49-.02-.15,1.63-1.11,1.73-1.12Z"/>
            <path class="cls-2" d="M52.76,10.41c5.11-.31,15.58,13.02,17.04,17.65.42,1.33.06,3.72-1.22,2.45-.33-.33-2.56-5.26-3.27-6.33-3.54-5.36-8.61-10.01-14.49-12.65-.07-.29,1.75-1.11,1.94-1.12Z"/>
            <path class="cls-2" d="M31.33,23.67c.85-.12,6.51,2.65,7.55,3.27,3.77,2.22,8.81,6.67,11.53,10.1.46.59,5.43,6.93,2.55,6.63-.38-.04-3.85-5.2-4.59-6.02-4.88-5.44-11.48-10.3-18.47-12.55-.27-.29,1.28-1.41,1.43-1.43Z"/>
            <path class="cls-2" d="M36.02,20c2.68-.37,10.52,5.24,12.65,7.14,1.69,1.51,9.37,10.29,9.08,12.14-.01.09-1.1,1.18-1.33,1.12-4.83-8.52-12.18-16.05-21.63-19.18-.37-.49,1.13-1.21,1.22-1.22Z"/>
            <path class="cls-2" d="M49.49,11.84c1.2-.13,4.96,2.25,6.12,3.06,3.98,2.77,8.22,7.66,10.51,11.94.73,1.36,3.15,5.16.71,5.41-4.11-8.43-10.25-15.45-18.88-19.49,0-.12,1.33-.9,1.53-.92Z"/>
            <path class="cls-2" d="M46.43,13.27c1.47-.22,5.63,2.36,6.94,3.27,4.38,3.03,9.77,9.02,11.73,13.98.22.55,1.52,3.41-.1,3.16-.34-.05-2.31-4.12-2.76-4.8-4.15-6.25-9.92-11.56-16.84-14.59-.28-.34.95-1.01,1.02-1.02Z"/>
            <path class="cls-2" d="M55.61,9.39c4.82-.7,13.9,11.45,15.61,15.61.61,1.47,2.17,4.69-.41,4.08-3.14-7.99-8.83-15.04-16.53-18.98,0-.08,1.25-.7,1.33-.71Z"/>
            <path class="cls-2" d="M63.16,7.14c4.41.13,12.03,12.48,12.96,16.63.22,1,.74,2.14-.31,2.76l-.71.1c-2.22-7.71-7.36-14.28-14.08-18.57-.04-.41,1.94-.92,2.14-.92Z"/>
            <path class="cls-2" d="M59.49,8.16c4.52.18,14.47,13.65,14.8,18.06.06.88-.38,2.22-1.43,1.63-2.57-7.88-8.08-14.71-15.31-18.78-.08-.36,1.82-.92,1.94-.92Z"/>
            <path class="cls-2" d="M67.04,6.33c3.73.17,12.74,14.75,11.53,18.47-.12.37-1,.95-1.43.41-.2-.26-1.56-5.09-2.04-6.12-2.26-4.82-6.14-8.71-10.2-12.04.03-.12,1.99-.72,2.14-.71Z"/>
            <path class="cls-2" d="M70.1,5.92c1.69-.22,1.89.48,2.96,1.53,2.44,2.41,6.23,8.91,6.94,12.24.24,1.14,1.2,5.26-.82,4.49-.94-7.01-5.16-13.01-10.2-17.76-.07-.28.99-.49,1.12-.51Z"/>
            <path class="cls-2" d="M73.16,5.51c1.34-.31,1.87.15,2.76.92,2.74,2.4,6.34,10.67,6.53,14.29.07,1.37.31,2.24-1.12,2.76-.76-4.46-2.35-8.76-4.8-12.55-.63-.98-4.1-4.58-4.08-4.9.01-.28.54-.47.71-.51Z"/>
            <path class="cls-2" d="M76.22,5.31c.53.09,1.38-.12,1.84,0,2,.54,6.68,11.75,6.84,13.98.1,1.53.25,2.35-1.33,2.96-1.08-3.07-1.42-6.27-2.76-9.29-1.13-2.55-3.08-5.07-4.8-7.24l.2-.41Z"/>
            <path class="cls-2" d="M79.49,5.31c1.21.03,1.64-.27,2.55.51,1.47,1.25,4.94,10.01,5.1,12.04.11,1.4.31,3.21-1.43,3.27-.35-5.86-3.62-10.79-6.22-15.82Z"/>
            <path class="cls-2" d="M86.02,5.51c2.91-1.13,5.02,7.09,5.2,9.08.1,1.03.37,4.86-.92,4.8l-4.29-13.88Z"/>
            <path class="cls-2" d="M82.96,5.31c2.17-.82,4.24,4.6,4.8,6.22.59,1.73,2.88,8.93,0,8.57.05-3.55-1.42-7.39-2.86-10.61-.26-.58-2.56-3.95-1.94-4.18Z"/>
            <path class="cls-2" d="M89.29,5.92c1.72-1.13,3.5,4.27,3.78,5.41.48,1.99,1.62,6.6-.92,7.45-.26-1.65-.19-3.58-.51-5.2-.19-.93-2.68-7.43-2.35-7.65Z"/>
            <path class="cls-2" d="M93.98,6.53c4.05-.89,4.83,11.18,2.45,10.82-.05-3.75-.67-7.46-2.45-10.82Z"/>
            <path class="cls-2" d="M91.94,6.12c.75.27.98.29,1.53.92,1.16,1.33,3.62,10.83,1.33,10.71l-2.86-11.63Z"/>
            <path class="cls-2" d="M97.24,7.14c2.4-.67,3.75,10.08,1.22,9.59l-1.22-9.59Z"/>
            <path class="cls-2" d="M99.69,7.76c1.82-.4,3.19,8.16,1.02,8.37l-1.02-8.37Z"/>
            <path class="cls-2" d="M101.73,8.37c1.7-1.25,3.3,8.49.51,7.04.95-.99-.8-6.83-.51-7.04Z"/>
            <path class="cls-2" d="M103.98,9.18c2.77-.66,1.87,7.91.31,6.02l-.31-6.02Z"/>
            <path class="cls-2" d="M106.22,9.8c2.27-.1,1.99,5.88.41,5.31l-.41-5.31Z"/>
            <path class="cls-2" d="M108.67,10.61c1.12-.16,2.56,5.28-.31,3.98l.31-3.98Z"/>
            <path class="cls-2" d="M110.71,11.63c.79-.61,1.76,2.5.82,2.86-1.03.39-.95-2.75-.82-2.86Z"/>
            <path class="cls-2" d="M112.55,12.24c.95-.05,1.87,1.79.82,2.24-1.35.59-1.03-2.23-.82-2.24Z"/>
            <path class="cls-2" d="M114.59,13.47c.5-.24,1.75.65,1.53.92-.81.63-2.75-.33-1.53-.92Z"/>
          </g>
        </g>
        <g>
          <path class="cls-2" d="M16.33,41.22s-.48.62.1.82c.44.15,2.03.05,2.65.2,5.62,1.42,10.4,3.54,14.8,7.35v.61c-2.97-2.68-8.27-5.72-12.14-6.73-1.97-.51-6.13-1.75-7.04.51,9.14.56,15.97,5.31,21.84,11.94h-.82c-3.72-4.62-11.09-9.95-17.04-10.82-2.53-.37-5.28-.75-5.61,2.55,9.68-1.4,18.45,5.27,24.29,12.35-.47.2-.58-.59-.61.2-1.01-2.76-10.08-9.2-12.96-10.41-3.08-1.29-11.14-3.73-12.24.82,8.64-1.71,16.63,3.34,22.96,8.57v.82c-3.63-3.78-12.64-8.88-17.86-9.18-1.93-.11-6.22.05-6.43,2.55,6.29-1.2,11.78.31,17.24,3.37,2.55,1.43,4.71,3.58,7.04,5.1v.82c-1.71-2.73-12.17-8.16-15.41-8.78-2.49-.48-10.52-1.09-9.59,2.86,2.85-.76,6.15-.84,9.08-.41l-1.43.41c-2.37-.19-9.64-.38-8.67,3.47,8.13-2.6,15.42-.37,22.14,4.29l-.2.41c-2.59-2.33-9.09-4.81-12.55-5.1-2.51-.21-11.16-.33-10.41,3.67,4.65-1.71,9.62-1.98,14.39-.61l-.82.41c-2.39-.58-5.19-.83-7.65-.61-1.14.1-5.93,1.21-6.43,2.14-1.32,2.49,2.87.26,3.98.1,1.99-.28,4.23-.24,6.22,0l-.2.61c-2.76-.33-10.93-.48-10.51,3.67,6.92-2.73,13.14-1.48,19.49,1.84l-.2.61c-4.05-2.73-10.19-3.91-15-3.06-1.62.28-5.78,1.57-4.69,3.88,2.38-.92,4.67-1.56,7.24-1.63v.61c-2.13.07-8.79.9-7.45,4.08,3.44-1.67,7.32-2.21,11.12-1.84v.61c-2.91-.33-6.34-.15-9.08,1.02-1.48.63-3.04,1.52-2.55,3.37.25.66,2.29-.95,2.76-1.12,3.51-1.32,6.8-1.72,10.51-1.02l-.41.61c-3.25-.58-6.18-.42-9.29.82-.62.25-3.12,1.61-3.37,2.14-1.86,3.97,2.67.5,3.78.1,1.32-.47,3.21-.94,4.59-1.02v.61c-2.54.19-10.11,2.22-8.06,5.92,2.26-1.77,4.98-3.31,7.86-3.67l.2.61c-1.97.26-4.92,1.37-6.43,2.65-.42.36-2.8,2.69-1.43,3.06.26.07,3.36-2.45,4.49-2.86,5.38-1.93,6.62.39,10.51.41.23,0,.21.33.61,0-4.74,9.84-7.73,20.63-7.86,31.63C.88,93.43,1.43,63.65,15.92,40.41c-.14.32.37.72.41.82Z"/>
          <g>
            <path class="cls-2" d="M13.78,88.16c1.07-.13,5.46-.05,5.61,1.33.01.1-.73,1.69-.92,1.73-.23.06-3.18-.81-4.69-.61-2.58.33-4.86,2.62-7.24,3.37-2.37-2.15,5.7-5.63,7.24-5.82Z"/>
            <path class="cls-2" d="M13.37,85.31c2.37-.3,5.09.36,7.04,1.73l-.51,1.12c-4.82-1.5-9.94-.31-13.57,3.16l-.41-.2c-.88-2.61,5.36-5.56,7.45-5.82Z"/>
            <path class="cls-2" d="M13.98,91.22c.89-.11,4.08-.08,4.18,1.12.19,2.22-3.47,1.19-5.2,1.53-.57.11-2.05.75-2.65,1.02-.79.36-2.86,2.4-3.37,1.73-1.51-1.99,5.52-5.23,7.04-5.41Z"/>
            <path class="cls-2" d="M14.18,94.29c.56-.05,2.79,0,2.96.71-.22,2.55-2.69,1.56-4.8,2.14-.57.16-1.66.72-2.24,1.02-.68.34-2.09,2.07-2.55,1.33-1.32-2.11,4.85-5.06,6.63-5.2Z"/>
            <path class="cls-2" d="M13.37,100.2c.39-.05,1.77-.12,1.94.31.03.08-.16,1.56-.2,1.63-.16.29-5.4,1.8-5.82,3.16-2.31-2.14,2.59-4.9,4.08-5.1Z"/>
            <path class="cls-2" d="M14.18,97.35c.41-.03,1.76-.14,1.94.31-.13,2.84-1.29,1.37-3.16,1.94-1.1.34-4.14,2.51-4.39,2.55-.28.05-.25-.04-.41-.2-1.19-1.89,4.48-4.47,6.02-4.59Z"/>
            <path class="cls-2" d="M13.98,103.27c.25.06.35.08.51.31.35,2.9-2.67,2.74-4.18,4.59-2.39-1.77,2.56-5.14,3.67-4.9Z"/>
            <path class="cls-2" d="M13.57,106.73l.51.31c-.45,6.14-6.77,2.88-.51-.31Z"/>
            <path class="cls-2" d="M12.76,110.82c1.38-.05.26,2.71.41,3.67-.78-.76-2.28-3.61-.41-3.67Z"/>
          </g>
        </g>
      </g>
    </g>
  </g>
  <path d="M80,4c41.91,0,76,34.09,76,76s-34.09,76-76,76S4,121.91,4,80,38.09,4,80,4M80,0C35.82,0,0,35.82,0,80s35.82,80,80,80,80-35.82,80-80S124.18,0,80,0h0Z"/>
  <path d="M118,16.74v4c6.78,0,12.08,1.86,15.74,5.52,6.43,6.43,7.3,17.96,2.47,32.48-5.15,15.45-16.07,32.04-30.75,46.72-20.53,20.54-45.44,33.8-63.45,33.8-6.79,0-12.08-1.86-15.75-5.52-6.43-6.43-7.3-17.96-2.47-32.48,5.15-15.45,16.07-32.04,30.75-46.72,20.53-20.53,45.44-33.8,63.45-33.8v-4M117.99,16.74c-18.56,0-44.12,12.81-66.28,34.98-31.24,31.24-43.91,69.23-28.28,84.85,4.54,4.54,10.97,6.69,18.57,6.69,18.56,0,44.12-12.81,66.28-34.98,31.24-31.24,43.91-69.23,28.28-84.85-4.54-4.54-10.97-6.69-18.57-6.69h0Z"/>
  <path class="cls-1" d="M80,43.64l24.82,56.73h-10.64s-14.18-31.89-14.18-31.89l-14.18,31.89h-10.64s24.82-56.73,24.82-56.73Z"/>
</svg>