<?xml version="1.0" encoding="UTF-8"?>
<svg id="Livello_1" data-name="Livello 1" xmlns="http://www.w3.org/2000/svg" viewBox="0 0 160 160">
  <defs>
    <style>
      .cls-1 {
        fill: #fff;
      }

      .cls-2 {
        fill: none;
        stroke: #fff;
        stroke-miterlimit: 10;
        stroke-width: 3px;
      }
    </style>
  </defs>
  <path class="cls-1" d="M80,4c41.91,0,76,34.09,76,76s-34.09,76-76,76S4,121.91,4,80,38.09,4,80,4M80,0C35.82,0,0,35.82,0,80s35.82,80,80,80,80-35.82,80-80S124.18,0,80,0h0Z"/>
  <path class="cls-1" d="M118,16.74v4c6.78,0,12.08,1.86,15.74,5.52,6.43,6.43,7.3,17.96,2.47,32.48-5.15,15.45-16.07,32.04-30.75,46.72-20.53,20.54-45.44,33.8-63.45,33.8-6.79,0-12.08-1.86-15.75-5.52-6.43-6.43-7.3-17.96-2.47-32.48,5.15-15.45,16.07-32.04,30.75-46.72,20.53-20.53,45.44-33.8,63.45-33.8v-4M117.99,16.74c-18.56,0-44.12,12.81-66.28,34.98-31.24,31.24-43.91,69.23-28.28,84.85,4.54,4.54,10.97,6.69,18.57,6.69,18.56,0,44.12-12.81,66.28-34.98,31.24-31.24,43.91-69.23,28.28-84.85-4.54-4.54-10.97-6.69-18.57-6.69h0Z"/>
  <path class="cls-2" d="M80,43.64l24.82,56.73h-10.64s-14.18-31.89-14.18-31.89l-14.18,31.89h-10.64s24.82-56.73,24.82-56.73Z"/>
</svg>